<?xml version="1.0" encoding="utf-8"?>
<!-- Generator: Adobe Illustrator 21.1.0, svg Export Plug-In . svg Version: 6.00 Build 0)  -->
<svg version="1.1" id="Layer_1" xmlns="http://www.w3.org/2000/svg" xmlns:xlink="http://www.w3.org/1999/xlink" x="0px" y="0px"
	 width="15.042px" height="16px" viewBox="0 0 15.042 16" enable-background="new 0 0 15.042 16" xml:space="preserve">
<path fill="#81848A" d="M8.144,16c2.52,0,4.77-1.17,6.23-3h-2.92c-0.95,0.64-2.09,1-3.31,1c-3.31,0-6-2.69-6-6s2.69-6,6-6
	c1.22,0,2.36,0.36,3.31,1h2.92c-1.46-1.83-3.71-3-6.23-3c-4.41,0-8,3.59-8,8C0.144,12.41,3.734,16,8.144,16z M9.437,11.707
	l1.414-1.414L9.558,9h5.586V7H9.558l1.293-1.293L9.437,4.293L5.73,8L9.437,11.707z"/>
</svg>
