<?xml version="1.0" encoding="utf-8"?>
<!-- Generator: Adobe Illustrator 21.1.0, svg Export Plug-In . svg Version: 6.00 Build 0)  -->
<svg version="1.1" id="Layer_1" xmlns="http://www.w3.org/2000/svg" xmlns:xlink="http://www.w3.org/1999/xlink" x="0px" y="0px"
	 width="13.031px" height="16.167px" viewBox="0 0 13.031 16.167" enable-background="new 0 0 13.031 16.167" xml:space="preserve">
<path fill="#CED3DA" d="M12,8.167V6.031c0-1.739-0.836-3.394-2.236-4.428C8.338,0.552,6.522,0.256,4.777,0.795
	C2.554,1.481,1,3.679,1,6.14v2.027H0v8h13v-8H12z M3,6.14c0-1.592,0.974-3.004,2.367-3.434c1.13-0.349,2.3-0.164,3.209,0.506
	C9.48,3.881,10,4.908,10,6.031v2.136H3V6.14z M6.698,13.64c-0.861,0-1.558-0.697-1.558-1.558c0-0.861,0.697-1.565,1.558-1.565
	c0.861,0,1.565,0.704,1.565,1.565C8.263,12.943,7.559,13.64,6.698,13.64z"/>
</svg>
