<?xml version="1.0" encoding="utf-8"?>
<!-- Generator: Adobe Illustrator 21.1.0, svg Export Plug-In . svg Version: 6.00 Build 0)  -->
<svg version="1.1" id="Layer_1" xmlns="http://www.w3.org/2000/svg" xmlns:xlink="http://www.w3.org/1999/xlink" x="0px" y="0px"
	 width="22.969px" height="20.375px" viewBox="0 0 22.969 20.375" enable-background="new 0 0 22.969 20.375" xml:space="preserve">
<path fill="#CED3DA" d="M22.557,10.519L19.238,7.09l-2.395,4.054l2.321-0.254c-0.36,3.899-3.645,6.962-7.636,6.962
	c-2.026,0-3.938-0.783-5.382-2.204l-0.701,0.713c1.633,1.606,3.793,2.491,6.083,2.491c4.579,0,8.331-3.57,8.641-8.073L22.557,10.519
	z M3.87,10.371c-0.002-0.064-0.013-0.126-0.013-0.19c0-4.23,3.441-7.672,7.672-7.672c2.174,0,4.254,0.928,5.708,2.546l0.744-0.669
	c-1.644-1.828-3.995-2.877-6.452-2.877c-4.781,0-8.672,3.89-8.672,8.672c0,0.168,0.025,0.332,0.035,0.499l-2.48,0.782l3.925,2.715
	l1.557-4.444L3.87,10.371z"/>
</svg>
