<?xml version="1.0" encoding="utf-8"?>
<!-- Generator: Adobe Illustrator 21.1.0, SVG Export Plug-In . SVG Version: 6.00 Build 0)  -->
<svg version="1.1" id="Layer_1" xmlns="http://www.w3.org/2000/svg" xmlns:xlink="http://www.w3.org/1999/xlink" x="0px" y="0px"
	 width="82px" height="82px" viewBox="0 0 82 82" enable-background="new 0 0 82 82" xml:space="preserve">
<path fill="#F48076" d="M24.565,40.429l7.373,2.752l2.854,9.178c0.183,0.588,0.901,0.805,1.379,0.415l4.11-3.351
	c0.431-0.351,1.044-0.369,1.495-0.042l7.413,5.382c0.51,0.371,1.233,0.091,1.361-0.525l5.431-26.122
	c0.14-0.674-0.522-1.236-1.164-0.988l-30.26,11.675C23.81,39.091,23.816,40.148,24.565,40.429z M34.333,41.716l14.41-8.875
	c0.259-0.159,0.525,0.191,0.303,0.397L37.153,44.293c-0.418,0.389-0.688,0.91-0.764,1.475l-0.405,3.002
	c-0.054,0.401-0.617,0.441-0.727,0.053l-1.558-5.475C33.52,42.724,33.78,42.057,34.333,41.716z M41,81C18.944,81,1,63.056,1,41
	S18.944,1,41,1s40,17.944,40,40S63.056,81,41,81z M41,3C20.047,3,3,20.047,3,41s17.047,38,38,38s38-17.047,38-38S61.953,3,41,3z"/>
</svg>
