<?xml version="1.0" encoding="utf-8"?>
<!-- Generator: Adobe Illustrator 21.1.0, SVG Export Plug-In . SVG Version: 6.00 Build 0)  -->
<svg version="1.1" id="Layer_1" xmlns="http://www.w3.org/2000/svg" xmlns:xlink="http://www.w3.org/1999/xlink" x="0px" y="0px"
	 width="61.571px" height="61.688px" viewBox="0 0 61.571 61.688" enable-background="new 0 0 61.571 61.688" xml:space="preserve">
<path fill="#FFA58B" d="M46.262,38.514c-0.026-0.057-0.053-0.113-0.081-0.167c-0.997-1.904-2.813-3.216-4.278-4.788
	c-0.308-0.33-0.618-0.718-0.612-1.169c0.004-0.312,0.162-0.6,0.324-0.867c1.489-2.443,3.765-4.435,4.715-7.134
	c0.149-0.422,0.385-1.063,0.116-1.447c-0.149-0.214-0.417-0.25-0.594-0.255h-5.43c-0.229,0.007-0.751,0.136-1.006,0.383
	c-0.306,0.296-0.538,0.742-0.688,1.14c-0.85,2.26-2.096,4.37-3.664,6.206c-0.299,0.35-0.753,0.724-1.168,0.524
	c-0.274-0.132-0.385-0.459-0.449-0.756c-0.449-2.096,0.12-4.282-0.111-6.413c-0.043-0.395-0.131-0.82-0.433-1.078
	c-0.227-0.194-0.535-0.257-0.83-0.305c-1.695-0.277-3.436-0.274-5.131,0.008c-0.682,0.114-1.491,0.406-1.602,1.089
	c0.555-0.081,1.107,0.264,1.417,0.732s0.421,1.038,0.488,1.595c0.174,1.458,0.089,2.947-0.249,4.377
	c-0.067,0.281-0.159,0.584-0.396,0.749c-0.501,0.348-1.147-0.158-1.524-0.637c-1.364-1.733-2.461-3.677-3.24-5.74
	c-0.197-0.521-0.312-1.152-0.768-1.576c-0.288-0.268-0.614-0.298-1.007-0.297c-1.055,0.003-3.394,0-3.394,0
	c-0.465,0.001-0.961-0.025-1.304,0.265c-0.477,0.403-0.398,1.033-0.226,1.488c0.668,1.759,1.318,3.104,2.414,5.245
	c0.113,0.22,0.237,0.44,0.369,0.649c2.867,4.538,6.327,9.739,12.861,10.04c0.255,0.012,0.505-0.058,0.733-0.172
	c0.333-0.167,1.324-0.154,1.68-0.736c0.121-0.198,0.15-0.436,0.166-0.667c0.038-0.563,0.015-1.141,0.198-1.674
	c0.183-0.533,0.643-1.025,1.207-1.026c0.432,0,0.811,0.28,1.125,0.576c1.174,1.11,2.007,2.677,3.505,3.283
	c0.857,0.346,1.813,0.32,2.736,0.285c1.003-0.038,2.006-0.079,3.009-0.123c0.418-0.018,0.892-0.066,1.144-0.4
	C46.538,39.381,46.441,38.914,46.262,38.514z M30.785,60.781c-16.508,0-29.938-13.43-29.938-29.938S14.278,0.906,30.785,0.906
	s29.938,13.43,29.938,29.938S47.293,60.781,30.785,60.781z M30.785,2.906c-15.405,0-27.938,12.532-27.938,27.938
	S15.38,58.781,30.785,58.781s27.938-12.532,27.938-27.938S46.191,2.906,30.785,2.906z"/>
</svg>
