<?xml version="1.0" encoding="utf-8"?>
<!-- Generator: Adobe Illustrator 21.1.0, SVG Export Plug-In . SVG Version: 6.00 Build 0)  -->
<svg version="1.1" id="Layer_1" xmlns="http://www.w3.org/2000/svg" xmlns:xlink="http://www.w3.org/1999/xlink" x="0px" y="0px"
	 width="60.167px" height="55.25px" viewBox="0 0 60.167 55.25" enable-background="new 0 0 60.167 55.25" xml:space="preserve">
<path fill="#CED3DA" d="M41.937,38.734c-3.223,3.959-8.132,6.486-13.615,6.486c-5.483,0-10.392-2.528-13.615-6.473l0.415-5.229
	c0.174-2.354,2.14-4.173,4.494-4.173h17.44c2.34,0,4.293,1.819,4.48,4.173L41.937,38.734z M35.244,19.553
	c0-3.824-3.1-6.925-6.925-6.925s-6.925,3.1-6.925,6.925s3.1,6.925,6.925,6.925S35.244,23.378,35.244,19.553z M54.081,36.019
	c-3.531,10.86-13.749,18.724-25.759,18.724c-14.939,0-27.083-12.144-27.083-27.083c0-14.939,12.144-27.083,27.083-27.083
	c10.205,0,19.112,5.684,23.726,14.043H50.51C46.029,7.024,37.751,1.915,28.322,1.915c-14.203,0-25.745,11.555-25.745,25.745
	s11.542,25.745,25.745,25.745c11.261,0,20.864-7.289,24.341-17.387H54.081z M60.167,24.167h-4v-4h-3v4h-4v3h4v4h3v-4h4V24.167z"/>
</svg>
