<?xml version="1.0" encoding="utf-8"?>
<!-- Generator: Adobe Illustrator 21.1.0, SVG Export Plug-In . SVG Version: 6.00 Build 0)  -->
<svg version="1.1" id="Layer_1" xmlns="http://www.w3.org/2000/svg" xmlns:xlink="http://www.w3.org/1999/xlink" x="0px" y="0px"
	 width="61.571px" height="61.688px" viewBox="0 0 61.571 61.688" enable-background="new 0 0 61.571 61.688" xml:space="preserve">
<path fill="#FFA58B" d="M27.571,23.107c0,0.575,0,3.58,0,3.58h-3v4h3v12h5v-12h3.291c0,0,0.308-1.911,0.458-4
	c-0.428,0-3.749,0-3.749,0s0-2.52,0-2.962c0-0.443,0.581-1.038,1.156-1.038c0.573,0,1.772,0,2.844,0c0-0.523,0-2.331,0-4
	c-1.431,0-3.059,0-3.777,0C27.445,18.687,27.571,22.533,27.571,23.107z M30.785,60.781c-16.508,0-29.938-13.43-29.938-29.938
	S14.278,0.906,30.785,0.906s29.938,13.43,29.938,29.938S47.293,60.781,30.785,60.781z M30.785,2.906
	c-15.405,0-27.938,12.532-27.938,27.938S15.38,58.781,30.785,58.781s27.938-12.532,27.938-27.938S46.191,2.906,30.785,2.906z"/>
</svg>
