<?xml version="1.0" encoding="utf-8"?>
<!-- Generator: Adobe Illustrator 21.1.0, svg Export Plug-In . svg Version: 6.00 Build 0)  -->
<svg version="1.1" id="Layer_1" xmlns="http://www.w3.org/2000/svg" xmlns:xlink="http://www.w3.org/1999/xlink" x="0px" y="0px"
	 width="18px" height="18px" viewBox="0 0 18 18" enable-background="new 0 0 18 18" xml:space="preserve">
<linearGradient id="SVGID_1_" gradientUnits="userSpaceOnUse" x1="0.9997" y1="9" x2="17.0003" y2="9">
	<stop  offset="0" style="stop-color:#F9A58C"/>
	<stop  offset="1" style="stop-color:#D66E6E"/>
</linearGradient>
<path fill="url(#SVGID_1_)" d="M16.979,7.163c0.029-0.069,0.029-0.146,0-0.215l-0.887-2.14c-0.029-0.069-0.083-0.123-0.152-0.152
	c-0.069-0.029-0.146-0.029-0.215,0l-1.608,0.667c-0.401-0.56-0.884-1.044-1.44-1.443l0.666-1.605c0.029-0.069,0.029-0.146,0-0.215
	c-0.029-0.069-0.083-0.123-0.152-0.152l-2.141-0.887c-0.069-0.029-0.146-0.029-0.215,0c-0.069,0.029-0.123,0.083-0.152,0.152
	L10.019,2.78C9.343,2.668,8.66,2.668,7.981,2.78L7.315,1.173C7.287,1.104,7.232,1.05,7.163,1.021c-0.069-0.029-0.146-0.029-0.215,0
	l-2.14,0.887C4.665,1.967,4.597,2.132,4.656,2.275l0.666,1.607c-0.56,0.401-1.044,0.884-1.442,1.44L2.274,4.656
	c-0.069-0.029-0.146-0.029-0.215,0C1.99,4.685,1.936,4.739,1.907,4.808l-0.886,2.14C0.962,7.091,1.03,7.255,1.173,7.315l1.606,0.666
	C2.668,8.655,2.668,9.339,2.78,10.018l-1.607,0.666c-0.143,0.059-0.211,0.223-0.152,0.367l0.886,2.14
	c0.029,0.069,0.083,0.123,0.152,0.152c0.069,0.029,0.146,0.029,0.215,0l1.608-0.667c0.401,0.56,0.884,1.044,1.44,1.443l-0.665,1.606
	c-0.029,0.069-0.029,0.146,0,0.215c0.029,0.069,0.083,0.123,0.152,0.152l2.14,0.886C6.983,16.993,7.02,17,7.056,17
	c0.11,0,0.215-0.065,0.259-0.173l0.665-1.606c0.675,0.111,1.358,0.111,2.038-0.001l0.666,1.607c0.059,0.143,0.224,0.211,0.367,0.152
	l2.141-0.886c0.069-0.029,0.123-0.083,0.152-0.152c0.029-0.069,0.029-0.146,0-0.215l-0.666-1.607
	c0.56-0.401,1.044-0.884,1.442-1.441l1.606,0.666c0.069,0.029,0.146,0.029,0.215,0c0.069-0.029,0.123-0.083,0.152-0.152l0.887-2.14
	c0.059-0.143-0.009-0.307-0.152-0.367l-1.607-0.666c0.112-0.674,0.111-1.358-0.001-2.038l1.608-0.666
	C16.896,7.286,16.95,7.232,16.979,7.163z M10.44,12.476c-1.916,0.792-4.121-0.121-4.915-2.037c-0.385-0.929-0.385-1.952,0-2.88
	C5.909,6.632,6.632,5.909,7.56,5.525c0.465-0.193,0.953-0.289,1.441-0.289c0.487,0,0.975,0.096,1.439,0.288
	c0.929,0.384,1.652,1.107,2.037,2.036C13.27,9.477,12.356,11.682,10.44,12.476z"/>
</svg>
