<?xml version="1.0" encoding="utf-8"?>
<!-- Generator: Adobe Illustrator 21.1.0, SVG Export Plug-In . SVG Version: 6.00 Build 0)  -->
<svg version="1.1" id="Layer_1" xmlns="http://www.w3.org/2000/svg" xmlns:xlink="http://www.w3.org/1999/xlink" x="0px" y="0px"
	 width="15px" height="16px" viewBox="0 0 15 16" enable-background="new 0 0 15 16" xml:space="preserve">
<path fill="#81848A" d="M7,0C4.48,0,2.23,1.17,0.77,3h2.92C4.64,2.36,5.78,2,7,2c3.31,0,6,2.69,6,6s-2.69,6-6,6
	c-1.22,0-2.36-0.36-3.31-1H0.77c1.46,1.83,3.71,3,6.23,3c4.41,0,8-3.59,8-8C15,3.59,11.41,0,7,0z M5.707,4.293L4.293,5.707L5.586,7
	H0v2h5.586l-1.293,1.293l1.414,1.414L9.414,8L5.707,4.293z"/>
</svg>
