<?xml version="1.0" encoding="utf-8"?>
<!-- Generator: Adobe Illustrator 21.1.0, svg Export Plug-In . svg Version: 6.00 Build 0)  -->
<svg version="1.1" id="Layer_1" xmlns="http://www.w3.org/2000/svg" xmlns:xlink="http://www.w3.org/1999/xlink" x="0px" y="0px"
	 width="82px" height="82px" viewBox="0 0 82 82" enable-background="new 0 0 82 82" xml:space="preserve">
<path fill="#FFA58B" d="M41,81C18.944,81,1,63.056,1,41S18.944,1,41,1s40,17.944,40,40S63.056,81,41,81z"/>
<path fill="#FFFFFF" d="M29,43.678c0,0.974-0.247,1.839-0.741,2.594c-0.494,0.756-1.207,1.344-2.138,1.762
	c-0.931,0.42-2.023,0.629-3.276,0.629c-1.046,0-1.923-0.073-2.632-0.221c-0.709-0.146-1.446-0.402-2.213-0.768v-3.781
	c0.81,0.415,1.65,0.739,2.524,0.973c0.874,0.232,1.676,0.349,2.406,0.349c0.63,0,1.092-0.109,1.386-0.327
	c0.294-0.219,0.44-0.5,0.44-0.844c0-0.215-0.06-0.402-0.177-0.564c-0.119-0.16-0.309-0.323-0.57-0.488
	c-0.261-0.165-0.957-0.501-2.089-1.01c-1.024-0.466-1.792-0.917-2.304-1.354c-0.513-0.437-0.893-0.938-1.139-1.504
	c-0.248-0.565-0.371-1.235-0.371-2.009c0-1.446,0.526-2.574,1.579-3.384s2.499-1.214,4.34-1.214c1.626,0,3.283,0.376,4.974,1.128
	l-1.3,3.276c-1.468-0.673-2.735-1.01-3.803-1.01c-0.552,0-0.952,0.097-1.203,0.29s-0.376,0.434-0.376,0.72
	c0,0.308,0.159,0.584,0.479,0.827c0.318,0.243,1.183,0.688,2.594,1.332c1.354,0.608,2.293,1.262,2.82,1.961
	C28.736,41.738,29,42.618,29,43.678z"/>
<path fill="#FFFFFF" d="M39.28,48l-3.417-11H35.76c0.16,1.874,0.24,3.329,0.24,4.367V48h-4V33h5.686l3.297,11h0.086l3.232-11H50v15
	h-4v-6.709c0-0.349,0.006-0.736,0.016-1.162c0.012-0.425,0.061-1.469,0.149-3.129h-0.099l-3.251,11H39.28z"/>
<path fill="#FFFFFF" d="M64,43.678c0,0.974-0.247,1.839-0.741,2.594c-0.494,0.756-1.207,1.344-2.138,1.762
	c-0.931,0.42-2.023,0.629-3.276,0.629c-1.046,0-1.923-0.073-2.632-0.221c-0.709-0.146-1.446-0.402-2.213-0.768v-3.781
	c0.81,0.415,1.65,0.739,2.524,0.973c0.874,0.232,1.676,0.349,2.406,0.349c0.63,0,1.092-0.109,1.386-0.327
	c0.294-0.219,0.44-0.5,0.44-0.844c0-0.215-0.06-0.402-0.177-0.564c-0.119-0.16-0.309-0.323-0.57-0.488
	c-0.261-0.165-0.957-0.501-2.089-1.01c-1.024-0.466-1.792-0.917-2.304-1.354c-0.513-0.437-0.893-0.938-1.139-1.504
	c-0.248-0.565-0.371-1.235-0.371-2.009c0-1.446,0.526-2.574,1.579-3.384s2.499-1.214,4.34-1.214c1.626,0,3.283,0.376,4.974,1.128
	l-1.3,3.276c-1.468-0.673-2.735-1.01-3.803-1.01c-0.552,0-0.952,0.097-1.203,0.29s-0.376,0.434-0.376,0.72
	c0,0.308,0.159,0.584,0.479,0.827c0.318,0.243,1.183,0.688,2.594,1.332c1.354,0.608,2.293,1.262,2.82,1.961
	C63.736,41.738,64,42.618,64,43.678z"/>
</svg>
