<?xml version="1.0" encoding="utf-8"?>
<!-- Generator: Adobe Illustrator 21.1.0, SVG Export Plug-In . SVG Version: 6.00 Build 0)  -->
<svg version="1.1" id="Layer_1" xmlns="http://www.w3.org/2000/svg" xmlns:xlink="http://www.w3.org/1999/xlink" x="0px" y="0px"
	 width="82px" height="82px" viewBox="0 0 82 82" enable-background="new 0 0 82 82" xml:space="preserve">
<path fill="#FFA58B" d="M41,81C18.944,81,1,63.056,1,41S18.944,1,41,1s40,17.944,40,40S63.056,81,41,81z"/>
<path id="Facebook_5_" fill="#FFFFFF" d="M38,31.525c0,0.719,0,4.642,0,4.475h-4v5h3v14h6V41h4.114c0,0,0.385-2.388,0.572-5
	C47.151,36,43,36,43,36s0-3.15,0-3.702C43,31.744,43.727,31,44.445,31c0.717,0,2.364,0,3.555,0c0-0.654,0-2.913,0-5
	c-1.59,0-3.399,0-4.196,0C37.86,26,38,30.807,38,31.525z"/>
</svg>
