<?xml version="1.0" encoding="utf-8"?>
<!-- Generator: Adobe Illustrator 21.1.0, svg Export Plug-In . svg Version: 6.00 Build 0)  -->
<svg version="1.1" id="Layer_1" xmlns="http://www.w3.org/2000/svg" xmlns:xlink="http://www.w3.org/1999/xlink" x="0px" y="0px"
	 width="66.167px" height="70px" viewBox="0 0 66.167 70" enable-background="new 0 0 66.167 70" xml:space="preserve">
<linearGradient id="SVGID_1_" gradientUnits="userSpaceOnUse" x1="1" y1="34.75" x2="65" y2="34.75">
	<stop  offset="0" style="stop-color:#F9A58C"/>
	<stop  offset="1" style="stop-color:#D66E6E"/>
</linearGradient>
<path fill="url(#SVGID_1_)" d="M50,39.5c0,1.381-1.119,2.5-2.5,2.5c-1.381,0-2.5-1.119-2.5-2.5s1.119-2.5,2.5-2.5
	C48.881,37,50,38.119,50,39.5z M7.531,16c-1.104-0.535-2-1.43-2-2.535s2-2.465,2-2.465h22.767l1.347-4H7.75
	C4.022,7,1,10.022,1,13.75v43.5C1,60.978,4.022,64,7.75,64h4.688l16.187-48H7.531z M65,31.875v15.25C65,48.713,63.713,50,62.125,50
	H61v11.104C61,62.704,59.704,64,58.104,64H25.137l16.159-48H51v-5h-8.019l1.367-4h7.778C53.713,7,55,8.287,55,9.875V15h3.104
	c1.6,0,2.896,1.297,2.896,2.896V29h1.125C63.713,29,65,30.287,65,31.875z M61,33H45.054l-4.645,7l4.645,6H61V33z M19.562,67.556
	L41.229,3.222c0.353-1.047-0.21-2.181-1.257-2.534c-1.052-0.355-2.183,0.21-2.534,1.257L15.771,66.278
	c-0.353,1.047,0.21,2.182,1.257,2.534c0.212,0.071,0.428,0.105,0.639,0.105C18.502,68.918,19.281,68.391,19.562,67.556z"/>
</svg>
