<?xml version="1.0" encoding="utf-8"?>
<!-- Generator: Adobe Illustrator 21.1.0, SVG Export Plug-In . SVG Version: 6.00 Build 0)  -->
<svg version="1.1" id="Layer_1" xmlns="http://www.w3.org/2000/svg" xmlns:xlink="http://www.w3.org/1999/xlink" x="0px" y="0px"
	 width="55.188px" height="55.25px" viewBox="0 0 55.188 55.25" enable-background="new 0 0 55.188 55.25" xml:space="preserve">
<path fill="#CED3DA" d="M40.952,38.734c-3.223,3.959-8.132,6.486-13.615,6.486c-5.483,0-10.392-2.528-13.615-6.473l0.415-5.229
	c0.174-2.354,2.14-4.173,4.494-4.173h17.44c2.34,0,4.293,1.819,4.48,4.173L40.952,38.734z M34.259,19.553
	c0-3.824-3.1-6.925-6.925-6.925s-6.925,3.1-6.925,6.925s3.1,6.925,6.925,6.925S34.259,23.378,34.259,19.553z M54.417,27.661
	c0-14.934-12.149-27.083-27.083-27.083S0.251,12.727,0.251,27.661S12.4,54.743,27.334,54.743S54.417,42.594,54.417,27.661z
	 M53.079,27.661c0,14.196-11.55,25.745-25.745,25.745S1.588,41.856,1.588,27.661S13.138,1.915,27.334,1.915
	S53.079,13.465,53.079,27.661z"/>
</svg>
