<?xml version="1.0" encoding="utf-8"?>
<!-- Generator: Adobe Illustrator 21.1.0, svg Export Plug-In . svg Version: 6.00 Build 0)  -->
<svg version="1.1" id="Layer_1" xmlns="http://www.w3.org/2000/svg" xmlns:xlink="http://www.w3.org/1999/xlink" x="0px" y="0px"
	 width="15.016px" height="16px" viewBox="0 0 15.016 16" enable-background="new 0 0 15.016 16" xml:space="preserve">
<linearGradient id="SVGID_1_" gradientUnits="userSpaceOnUse" x1="0.1176" y1="8" x2="15.0156" y2="8">
	<stop  offset="0" style="stop-color:#F9A58C"/>
	<stop  offset="1" style="stop-color:#D66E6E"/>
</linearGradient>
<path fill="url(#SVGID_1_)" d="M8.118,16c2.52,0,4.77-1.17,6.23-3h-2.92c-0.95,0.64-2.09,1-3.31,1c-3.31,0-6-2.69-6-6s2.69-6,6-6
	c1.22,0,2.36,0.36,3.31,1h2.92c-1.46-1.83-3.71-3-6.23-3c-4.41,0-8,3.59-8,8C0.118,12.41,3.708,16,8.118,16z M9.411,11.707
	l1.414-1.414L9.532,9h5.484V7H9.532l1.293-1.293L9.411,4.293L5.704,8L9.411,11.707z"/>
</svg>
