<?xml version="1.0" encoding="utf-8"?>
<!-- Generator: Adobe Illustrator 21.1.0, SVG Export Plug-In . SVG Version: 6.00 Build 0)  -->
<svg version="1.1" id="Layer_1" xmlns="http://www.w3.org/2000/svg" xmlns:xlink="http://www.w3.org/1999/xlink" x="0px" y="0px"
	 width="82px" height="82px" viewBox="0 0 82 82" enable-background="new 0 0 82 82" xml:space="preserve">
<path fill="#F48076" d="M59.727,49.762c-0.031-0.069-0.064-0.137-0.098-0.202c-1.207-2.304-3.403-3.891-5.176-5.794
	c-0.372-0.4-0.748-0.869-0.74-1.415c0.005-0.378,0.196-0.726,0.393-1.049c1.801-2.957,4.555-5.367,5.705-8.633
	c0.18-0.511,0.465-1.286,0.14-1.751c-0.181-0.259-0.505-0.302-0.719-0.308h-6.57c-0.277,0.008-0.908,0.164-1.217,0.464
	c-0.37,0.359-0.651,0.898-0.833,1.38c-1.029,2.734-2.536,5.287-4.434,7.509c-0.362,0.424-0.911,0.876-1.413,0.634
	c-0.331-0.159-0.466-0.555-0.543-0.915c-0.543-2.536,0.145-5.181-0.134-7.76c-0.052-0.478-0.159-0.993-0.524-1.305
	c-0.275-0.235-0.647-0.311-1.004-0.37c-2.051-0.335-4.158-0.332-6.208,0.01c-0.826,0.138-1.805,0.492-1.939,1.318
	c0.672-0.098,1.34,0.319,1.715,0.885c0.375,0.566,0.509,1.256,0.59,1.93c0.211,1.765,0.108,3.567-0.302,5.296
	c-0.081,0.34-0.192,0.706-0.479,0.906c-0.606,0.421-1.388-0.191-1.845-0.771c-1.65-2.097-2.978-4.449-3.92-6.946
	c-0.238-0.63-0.378-1.394-0.93-1.907c-0.348-0.324-0.743-0.36-1.219-0.359c-1.276,0.003-4.106,0-4.106,0
	c-0.562,0.001-1.162-0.031-1.578,0.321c-0.577,0.488-0.482,1.251-0.273,1.8c0.806,2.125,1.592,3.751,2.914,6.335
	c0.141,0.276,0.297,0.55,0.463,0.812c3.407,5.393,7.511,11.555,15.15,12.109c0.439,0.032,0.899,0.005,1.295-0.188
	c0.409-0.199,1.598-0.187,2.027-0.887c0.146-0.239,0.182-0.528,0.201-0.808c0.046-0.681,0.018-1.38,0.239-2.026
	s0.779-1.241,1.461-1.241c0.523,0,0.981,0.338,1.361,0.697c1.421,1.343,2.429,3.24,4.241,3.972c1.037,0.419,2.193,0.387,3.311,0.345
	c1.214-0.046,2.427-0.095,3.641-0.149c0.506-0.022,1.08-0.08,1.384-0.484C60.061,50.81,59.944,50.245,59.727,49.762z M41,81
	C18.944,81,1,63.056,1,41S18.944,1,41,1s40,17.944,40,40S63.056,81,41,81z M41,3C20.047,3,3,20.047,3,41s17.047,38,38,38
	s38-17.047,38-38S61.953,3,41,3z"/>
</svg>
