<?xml version="1.0" encoding="utf-8"?>
<!-- Generator: Adobe Illustrator 21.1.0, SVG Export Plug-In . SVG Version: 6.00 Build 0)  -->
<svg version="1.1" id="Layer_1" xmlns="http://www.w3.org/2000/svg" xmlns:xlink="http://www.w3.org/1999/xlink" x="0px" y="0px"
	 width="44px" height="42.042px" viewBox="0 0 44 42.042" enable-background="new 0 0 44 42.042" xml:space="preserve">
<path fill="#CED3DA" d="M30.753,29.148c-2.41,2.96-6.08,4.85-10.18,4.85c-4.1,0-7.77-1.89-10.18-4.84l0.31-3.91
	c0.13-1.76,1.6-3.12,3.36-3.12h13.04c1.75,0,3.21,1.36,3.35,3.12L30.753,29.148z M25.748,14.806c0-2.86-2.318-5.178-5.178-5.178
	s-5.178,2.318-5.178,5.178s2.318,5.178,5.178,5.178S25.748,17.666,25.748,14.806z M39.833,27.118c-2.64,8.12-10.28,14-19.26,14
	c-11.17,0-20.25-9.08-20.25-20.25c0-11.17,9.08-20.25,20.25-20.25c7.63,0,14.29,4.25,17.74,10.5h-1.15
	c-3.35-5.68-9.54-9.5-16.59-9.5c-10.62,0-19.25,8.64-19.25,19.25s8.63,19.25,19.25,19.25c8.42,0,15.6-5.45,18.2-13H39.833z
	 M44,18.042h-3v-3h-2v3h-3v2h3v3h2v-3h3V18.042z"/>
</svg>
