<?xml version="1.0" encoding="utf-8"?>
<!-- Generator: Adobe Illustrator 21.1.0, svg Export Plug-In . svg Version: 6.00 Build 0)  -->
<svg version="1.1" id="Layer_1" xmlns="http://www.w3.org/2000/svg" xmlns:xlink="http://www.w3.org/1999/xlink" x="0px" y="0px"
	 width="87px" height="41px" viewBox="0 0 87 41" enable-background="new 0 0 87 41" xml:space="preserve">
<linearGradient id="SVGID_1_" gradientUnits="userSpaceOnUse" x1="1" y1="20.75" x2="86.5" y2="20.75">
	<stop  offset="0" style="stop-color:#F9A58C"/>
	<stop  offset="1" style="stop-color:#D66E6E"/>
</linearGradient>
<path fill="url(#SVGID_1_)" d="M67.883,1.583c-4.568,0-9.438,1.687-14.543,5.061l-9.584,7.145l-9.384-7.099l-0.279-0.186
	c-5.037-3.326-9.908-5.013-14.489-5.013C8.475,1.592,1,11.531,1,20.75c0,9.257,7.48,19.167,18.617,19.167
	c4.568,0,9.438-1.687,14.543-5.061l9.584-7.145l9.384,7.099l0.279,0.186c5.037,3.326,9.908,5.013,14.476,5.013
	c11.136,0,18.617-9.91,18.617-19.167C86.5,11.541,79.02,1.583,67.883,1.583z M67.883,28.836c-2.199,0-5.085-1.085-8.348-3.138
	l-6.572-4.948l6.572-4.948c3.263-2.053,6.148-3.138,8.348-3.138c4.876,0,7.535,5.342,7.535,8.086S72.759,28.836,67.883,28.836z
	 M34.445,20.75l-6.572,4.948c-3.263,2.053-6.148,3.138-8.348,3.138c-4.876,0-7.536-5.342-7.536-8.086s2.66-8.086,7.536-8.086
	c2.199,0,5.085,1.085,8.348,3.138L34.445,20.75z"/>
</svg>
