<?xml version="1.0" encoding="utf-8"?>
<!-- Generator: Adobe Illustrator 21.1.0, SVG Export Plug-In . SVG Version: 6.00 Build 0)  -->
<svg version="1.1" id="Layer_1" xmlns="http://www.w3.org/2000/svg" xmlns:xlink="http://www.w3.org/1999/xlink" x="0px" y="0px"
	 width="61.571px" height="61.688px" viewBox="0 0 61.571 61.688" enable-background="new 0 0 61.571 61.688" xml:space="preserve">
<path fill="#FFA58B" d="M30.786,60.781c-16.508,0-29.938-13.43-29.938-29.938S14.278,0.906,30.786,0.906s29.938,13.43,29.938,29.938
	S47.294,60.781,30.786,60.781z M30.786,2.906c-15.405,0-27.938,12.532-27.938,27.938S15.38,58.782,30.786,58.782
	S58.724,46.25,58.724,30.844S46.191,2.906,30.786,2.906z M21.124,33.33c0,0.784-0.199,1.481-0.597,2.088
	c-0.398,0.609-0.972,1.082-1.721,1.418c-0.749,0.338-1.629,0.506-2.638,0.506c-0.842,0-1.548-0.059-2.119-0.178
	c-0.571-0.118-1.165-0.324-1.782-0.618v-3.045c0.652,0.334,1.329,0.595,2.033,0.783c0.704,0.187,1.349,0.281,1.937,0.281
	c0.507,0,0.879-0.088,1.116-0.263c0.237-0.176,0.355-0.403,0.355-0.679c0-0.173-0.048-0.324-0.142-0.454
	c-0.096-0.129-0.248-0.26-0.459-0.393c-0.21-0.133-0.771-0.403-1.682-0.813c-0.825-0.375-1.443-0.738-1.855-1.09
	c-0.413-0.351-0.719-0.756-0.917-1.211c-0.2-0.455-0.299-0.995-0.299-1.617c0-1.165,0.424-2.073,1.271-2.725
	s2.012-0.977,3.494-0.977c1.309,0,2.644,0.303,4.005,0.908l-1.047,2.638c-1.182-0.542-2.202-0.813-3.062-0.813
	c-0.444,0-0.767,0.078-0.969,0.234s-0.303,0.349-0.303,0.58c0,0.248,0.128,0.47,0.385,0.666c0.256,0.196,0.952,0.554,2.088,1.073
	c1.09,0.49,1.846,1.016,2.271,1.579C20.912,31.769,21.124,32.477,21.124,33.33z M29.531,36.688l-2.563-9h-0.577
	c0.12,1.533,0.18,2.723,0.18,3.573v5.427h-3v-12h4.423l2.565,9h0.067l2.514-9h4.431v12h-3v-5.489c0-0.286,0.005-0.603,0.012-0.951
	c0.009-0.348,0.046-1.202,0.112-2.56H34.62l-2.438,9H29.531z M49.305,33.33c0,0.784-0.199,1.481-0.597,2.088
	c-0.398,0.609-0.972,1.082-1.721,1.418c-0.749,0.338-1.629,0.506-2.638,0.506c-0.842,0-1.548-0.059-2.119-0.178
	c-0.571-0.118-1.165-0.324-1.782-0.618v-3.045c0.652,0.334,1.329,0.595,2.033,0.783c0.704,0.187,1.349,0.281,1.937,0.281
	c0.507,0,0.879-0.088,1.116-0.263c0.237-0.176,0.355-0.403,0.355-0.679c0-0.173-0.048-0.324-0.142-0.454
	c-0.096-0.129-0.248-0.26-0.459-0.393c-0.21-0.133-0.771-0.403-1.682-0.813c-0.825-0.375-1.443-0.738-1.855-1.09
	c-0.413-0.351-0.719-0.756-0.917-1.211c-0.2-0.455-0.299-0.995-0.299-1.617c0-1.165,0.424-2.073,1.271-2.725
	s2.012-0.977,3.494-0.977c1.309,0,2.644,0.303,4.005,0.908l-1.047,2.638c-1.182-0.542-2.202-0.813-3.062-0.813
	c-0.444,0-0.767,0.078-0.969,0.234c-0.202,0.156-0.303,0.349-0.303,0.58c0,0.248,0.128,0.47,0.385,0.666
	c0.256,0.196,0.952,0.554,2.088,1.073c1.09,0.49,1.846,1.016,2.271,1.579C49.093,31.769,49.305,32.477,49.305,33.33z"/>
</svg>
