<?xml version="1.0" encoding="utf-8"?>
<!-- Generator: Adobe Illustrator 21.1.0, SVG Export Plug-In . SVG Version: 6.00 Build 0)  -->
<svg version="1.1" id="Layer_1" xmlns="http://www.w3.org/2000/svg" xmlns:xlink="http://www.w3.org/1999/xlink" x="0px" y="0px"
	 width="61.571px" height="61.688px" viewBox="0 0 61.571 61.688" enable-background="new 0 0 61.571 61.688" xml:space="preserve">
<path fill="#FFA58B" d="M17.848,30.365l6.18,2.307l2.392,7.693c0.153,0.493,0.756,0.675,1.156,0.348l3.445-2.808
	c0.361-0.294,0.875-0.309,1.253-0.035l6.214,4.511c0.428,0.311,1.034,0.077,1.141-0.44l4.552-21.895
	c0.117-0.565-0.438-1.036-0.975-0.828l-25.365,9.785C17.215,29.243,17.22,30.13,17.848,30.365z M26.035,31.444l12.079-7.439
	c0.217-0.133,0.44,0.16,0.254,0.333l-9.969,9.266c-0.35,0.326-0.576,0.763-0.64,1.236l-0.34,2.516
	c-0.045,0.336-0.517,0.369-0.61,0.044l-1.306-4.589C25.354,32.289,25.572,31.729,26.035,31.444z M30.785,60.781
	c-16.508,0-29.938-13.43-29.938-29.938S14.278,0.906,30.785,0.906s29.938,13.43,29.938,29.938S47.293,60.781,30.785,60.781z
	 M30.785,2.906c-15.405,0-27.938,12.532-27.938,27.938S15.38,58.781,30.785,58.781s27.938-12.532,27.938-27.938
	S46.191,2.906,30.785,2.906z"/>
</svg>
