<?xml version="1.0" encoding="utf-8"?>
<!-- Generator: Adobe Illustrator 21.1.0, svg Export Plug-In . svg Version: 6.00 Build 0)  -->
<svg version="1.1" id="Layer_1" xmlns="http://www.w3.org/2000/svg" xmlns:xlink="http://www.w3.org/1999/xlink" x="0px" y="0px"
	 width="82px" height="82px" viewBox="0 0 82 82" enable-background="new 0 0 82 82" xml:space="preserve">
<path fill="#FFA58B" d="M41,81C18.944,81,1,63.056,1,41S18.944,1,41,1s40,17.944,40,40S63.056,81,41,81z"/>
<path id="Skype_5_" fill="#FFFFFF" d="M56.122,43.389c0.123-0.779,0.188-1.576,0.188-2.39c0-8.456-6.855-15.31-15.311-15.31
	c-0.811,0-1.611,0.067-2.389,0.189c-1.41-0.872-3.074-1.377-4.858-1.377c-5.11,0-9.252,4.142-9.252,9.252
	c0,1.783,0.505,3.446,1.377,4.859c-0.121,0.78-0.187,1.575-0.187,2.389c0,8.457,6.854,15.309,15.309,15.309
	c0.812,0,1.612-0.063,2.39-0.185c1.412,0.871,3.074,1.377,4.858,1.377c5.111,0,9.253-4.143,9.253-9.253
	C57.5,46.463,56.995,44.801,56.122,43.389z M48.218,47.926c-0.773,1.062-1.891,1.868-3.115,2.36
	c-1.462,0.588-3.069,0.752-4.642,0.664c-2.571-0.144-5.246-1.058-6.815-3.1c-0.416-0.541-0.749-1.163-0.847-1.839
	c-0.098-0.675,0.065-1.408,0.53-1.907c0.637-0.683,1.81-0.773,2.544-0.195c0.757,0.596,0.947,1.655,1.492,2.45
	c0.969,1.412,2.938,1.784,4.625,1.488c0.76-0.134,1.521-0.388,2.109-0.889s0.975-1.282,0.855-2.045
	c-0.097-0.614-0.507-1.147-1.013-1.509s-1.104-0.572-1.702-0.743c-1.589-0.454-3.246-0.661-4.808-1.2
	c-1.562-0.538-3.083-1.482-3.817-2.963c-1.2-2.42,0.184-5.2,2.423-6.408c1.2-0.648,2.573-0.913,3.934-1
	c2.252-0.144,4.617,0.213,6.468,1.503c0.679,0.473,1.288,1.081,1.616,1.84s0.338,1.685-0.109,2.38s-1.396,1.074-2.156,0.748
	c-0.862-0.369-1.19-1.392-1.759-2.137c-0.613-0.804-1.571-1.316-2.572-1.461s-2.036,0.06-2.946,0.501
	c-0.725,0.351-1.451,1.001-1.374,1.802c0.071,0.736,0.78,1.229,1.453,1.534c1.781,0.808,3.763,1.04,5.638,1.596
	s3.776,1.566,4.617,3.332c0.677,1.423,0.533,3.165-0.22,4.549C48.505,47.504,48.368,47.72,48.218,47.926z"/>
</svg>
