<?xml version="1.0" encoding="utf-8"?>
<!-- Generator: Adobe Illustrator 21.1.0, SVG Export Plug-In . SVG Version: 6.00 Build 0)  -->
<svg version="1.1" id="Layer_1" xmlns="http://www.w3.org/2000/svg" xmlns:xlink="http://www.w3.org/1999/xlink" x="0px" y="0px"
	 width="84px" height="72px" viewBox="0 0 84 72" enable-background="new 0 0 84 72" xml:space="preserve">
<linearGradient id="SVGID_1_" gradientUnits="userSpaceOnUse" x1="0.9" y1="36.2083" x2="82.1499" y2="36.2083">
	<stop  offset="0" style="stop-color:#F9A58C"/>
	<stop  offset="1" style="stop-color:#D66E6E"/>
</linearGradient>
<path fill="url(#SVGID_1_)" d="M25.002,45.568c0,1.853,0.181,3.663,0.511,5.422C25.168,50.997,24.857,51,24.629,51L0.9,50.911
	l8.854-7.969C5.681,38.516,3.202,32.583,3.202,26.12C3.291,12.484,14.358,1.417,28.082,1.417c9.917,0,18.505,5.844,22.49,14.344
	c0.094,0.172,0.183,0.351,0.272,0.53c-6.523,0.783-12.564,3.7-17.29,8.426C27.921,30.35,24.884,37.766,25.002,45.568z M82.15,70.885
	l-8.984-8.086l0.083-0.094C77.603,57.936,80,51.792,80,45.378c-0.207-13.94-11.688-25.281-25.593-25.281
	c-6.802,0-13.203,2.655-18.023,7.475c-4.862,4.861-7.483,11.273-7.381,18.023C29.002,59.604,40.441,71,54.501,71H54.6L82.15,70.885z
	 M76,45.479c0,5.385-2.026,10.57-5.729,14.626l-2.726,3.09L71.774,67l-17.272,0.072c-11.854,0-21.499-9.602-21.499-21.435
	c-0.086-5.689,2.119-11.074,6.209-15.165c4.065-4.064,9.461-6.303,15.195-6.303C66.139,24.169,75.826,33.742,76,45.479z
	 M57.554,38.055l2.405,0.251l0.467-4.07l-4.383-0.401C53.335,33.588,51,35.719,51,38.438V42h-3v4h3v12h5V46h3.081l0.458-4H56v-2.544
	C56,38.62,56.723,37.968,57.554,38.055z"/>
</svg>
