<?xml version="1.0" encoding="utf-8"?>
<!-- Generator: Adobe Illustrator 21.1.0, SVG Export Plug-In . SVG Version: 6.00 Build 0)  -->
<svg version="1.1" id="Layer_1" xmlns="http://www.w3.org/2000/svg" xmlns:xlink="http://www.w3.org/1999/xlink" x="0px" y="0px"
	 width="61.571px" height="61.688px" viewBox="0 0 61.571 61.688" enable-background="new 0 0 61.571 61.688" xml:space="preserve">
<path fill="#FFFFFF" d="M44.075,32.943c0.108-0.685,0.165-1.385,0.165-2.1c0-7.431-6.024-13.455-13.455-13.455
	c-0.713,0-1.416,0.059-2.1,0.166c-1.239-0.767-2.702-1.21-4.269-1.21c-4.49,0-8.131,3.64-8.131,8.131c0,1.567,0.444,3.028,1.21,4.27
	c-0.106,0.686-0.164,1.384-0.164,2.099c0,7.432,6.024,13.454,13.453,13.454c0.714,0,1.416-0.055,2.1-0.163
	c1.24,0.765,2.702,1.21,4.269,1.21c4.492,0,8.131-3.641,8.131-8.131C45.286,35.645,44.842,34.184,44.075,32.943z M37.129,36.93
	c-0.68,0.933-1.662,1.642-2.738,2.074c-1.285,0.517-2.697,0.661-4.079,0.584c-2.259-0.127-4.61-0.93-5.989-2.724
	c-0.365-0.475-0.658-1.022-0.744-1.616c-0.086-0.593,0.057-1.237,0.466-1.676c0.56-0.6,1.591-0.68,2.236-0.172
	c0.666,0.524,0.832,1.455,1.311,2.153c0.851,1.241,2.582,1.568,4.064,1.307c0.668-0.118,1.337-0.341,1.853-0.781
	s0.857-1.127,0.751-1.797c-0.085-0.54-0.446-1.008-0.89-1.326c-0.445-0.318-0.97-0.503-1.496-0.653
	c-1.397-0.399-2.852-0.581-4.225-1.054c-1.373-0.473-2.709-1.303-3.354-2.604c-1.055-2.127,0.162-4.569,2.129-5.632
	c1.055-0.569,2.261-0.802,3.457-0.879c1.979-0.127,4.057,0.187,5.684,1.321c0.596,0.415,1.132,0.95,1.42,1.617
	s0.297,1.481-0.096,2.092s-1.226,0.944-1.895,0.658c-0.757-0.324-1.046-1.223-1.545-1.878c-0.539-0.707-1.381-1.156-2.26-1.284
	S29.4,24.713,28.6,25.1c-0.637,0.308-1.275,0.879-1.207,1.584c0.062,0.646,0.686,1.08,1.277,1.348
	c1.565,0.71,3.307,0.914,4.955,1.402c1.648,0.489,3.319,1.376,4.058,2.928c0.595,1.25,0.469,2.781-0.193,3.998
	C37.381,36.559,37.261,36.749,37.129,36.93z M30.785,60.781c-16.508,0-29.938-13.43-29.938-29.938S14.278,0.906,30.785,0.906
	s29.938,13.43,29.938,29.938S47.293,60.781,30.785,60.781z M30.785,2.906c-15.405,0-27.938,12.532-27.938,27.938
	S15.38,58.781,30.785,58.781s27.938-12.532,27.938-27.938S46.191,2.906,30.785,2.906z"/>
</svg>
